<?xml version="1.0" encoding="UTF-8" standalone="no"?>
<svg
   xmlns:dc="http://purl.org/dc/elements/1.1/"
   xmlns:cc="http://creativecommons.org/ns#"
   xmlns:rdf="http://www.w3.org/1999/02/22-rdf-syntax-ns#"
   xmlns:svg="http://www.w3.org/2000/svg"
   xmlns="http://www.w3.org/2000/svg"
   xmlns:sodipodi="http://sodipodi.sourceforge.net/DTD/sodipodi-0.dtd"
   xmlns:inkscape="http://www.inkscape.org/namespaces/inkscape"
   width="25"
   height="28"
   id="svg10072"
   version="1.1"
   inkscape:version="0.91 r13725"
   sodipodi:docname="logo.svg">
  <metadata
     id="metadata10094">
    <rdf:RDF>
      <cc:Work
         rdf:about="">
        <dc:format>image/svg+xml</dc:format>
        <dc:type
           rdf:resource="http://purl.org/dc/dcmitype/StillImage" />
        <dc:title></dc:title>
      </cc:Work>
    </rdf:RDF>
  </metadata>
  <defs
     id="defs10092" />
  <sodipodi:namedview
     pagecolor="#ffffff"
     bordercolor="#666666"
     borderopacity="1"
     objecttolerance="10"
     gridtolerance="10"
     guidetolerance="10"
     inkscape:pageopacity="0"
     inkscape:pageshadow="2"
     inkscape:window-width="1920"
     inkscape:window-height="1024"
     id="namedview10090"
     showgrid="false"
     inkscape:zoom="0.27597403"
     inkscape:cx="27.282465"
     inkscape:cy="944.38235"
     inkscape:window-x="0"
     inkscape:window-y="0"
     inkscape:window-maximized="1"
     inkscape:current-layer="svg10072" />
  <path
     style="fill:#fef2e5;stroke:none"
     d="m 0.03985579,0.0345 0,7.2191 C 0.14733445,7.1966 0.20159362,7.0277 0.27047222,6.9271 0.38658352,6.7576 0.6195494,6.5644 0.83098013,6.5304 1.0059603,6.5024 1.2293683,6.4864 1.4013256,6.5404 c 0.1616266,0.049 0.3148896,0.158 0.4599706,0.2413 0.2197707,0.1262 0.4422054,0.2479 0.662322,0.3735 1.0509811,0.5996 2.1037284,1.1938 3.1592539,1.7841 0.2664249,0.149 0.531102,0.3028 0.7963678,0.4544 0.095119,0.054 0.2380733,0.1749 0.349493,0.1793 0.1153937,0 0.2763599,-0.1324 0.3732819,-0.1889 C 7.4679245,9.229 7.736962,9.0769 8.0062939,8.927 8.7817061,8.4953 9.5595653,8.0635 10.322835,7.611 c 0.25958,-0.1539 0.525159,-0.2979 0.787574,-0.447 0.119551,-0.068 0.238643,-0.1643 0.373153,-0.1984 0,-2.0305 -0.03446,-4.0643 9.1e-5,-6.0946 0.0021,-0.1275 0.07233,-0.2334 0.0735,-0.3627 0.07122,-0.025 0.08945,-0.097 0.137307,-0.1519 0.05816,-0.067 0.131216,-0.126 0.204514,-0.176 0.06865,-0.047 0.12956,-0.06 0.154931,-0.1437 l -12.01405029,0 z"
     id="path10074"
     inkscape:connector-curvature="0" />
  <path
     style="fill:#dc5e1f;stroke:none"
     d="m 12.053906,0.0345 c -0.06025,0.1204 -0.235865,0.1813 -0.333909,0.2787 -0.06089,0.061 -0.08925,0.1507 -0.162843,0.1929 -0.0027,0.1165 -0.06897,0.2118 -0.07326,0.3265 -0.02541,0.6811 -3.31e-4,1.3679 -3.31e-4,2.0496 l 0,4.0812 C 11.340976,6.9834 11.217339,7.0927 11.094348,7.1618 10.836791,7.3065 10.576933,7.4481 10.322836,7.5987 9.5103142,8.0802 8.6777202,8.5265 7.8591089,8.9978 7.6352943,9.1266 7.4081313,9.2504 7.1861933,9.3819 7.0940373,9.4369 6.9544674,9.5534 6.8469297,9.5649 6.7981377,9.5749 6.7581407,9.5389 6.718418,9.5159 6.633032,9.4669 6.5468361,9.4179 6.4608427,9.3699 6.1233822,9.18 5.7849097,8.992 5.4489578,8.7999 4.4820935,8.2471 3.5098937,7.7048 2.5420174,7.1526 2.3219009,7.0269 2.0996501,6.905 1.8796807,6.7791 1.7347321,6.6961 1.5809505,6.5868 1.4197248,6.5378 1.2883798,6.4978 1.1143564,6.5018 0.97816704,6.5108 0.58302988,6.5378 0.29771363,6.8056 0.13335277,7.144 0.10830117,7.196 0.05970258,7.236 0.04543587,7.2922 c -0.02361029,0.093 -0.0055791,0.2095 -0.0055791,0.3053 0,0.086 -0.02047337,0.203 0.0103774,0.285 0.01729356,0.046 0.05893264,0.079 0.08521968,0.1193 0.0756791,0.1172 0.13811946,0.2125 0.24695609,0.304 0.13796656,0.116 0.30874271,0.1915 0.46411586,0.2817 0.2499088,0.145 0.5019095,0.288 0.7558052,0.4259 0.7366066,0.4004 1.4611109,0.8283 2.1907667,1.2423 0.465402,0.2641 0.9296999,0.5296 1.3973465,0.7893 0.1969531,0.1093 0.4100968,0.2808 0.6264601,0.3435 l 0,3.8454 0,0.9976 c 0,0.1007 0.036613,0.2891 -0.029493,0.3724 -0.08546,0.1077 -0.2923112,0.1807 -0.4120837,0.2492 -0.3298805,0.1886 -0.6613984,0.3749 -0.9934866,0.5598 -1.0661965,0.5935 -2.1165888,1.2111 -3.1828956,1.8039 -0.31036173,0.1725 -0.71031925,0.3312 -0.94697029,0.6009 -0.0479405,0.055 -0.0765991,0.1206 -0.11484661,0.1814 -0.0258675,0.041 -0.06832462,0.074 -0.08644054,0.1193 -0.03580565,0.09 -0.01083169,0.2259 -0.01083169,0.3213 0,0.091 -0.02179842,0.2149 0.01506215,0.3003 0.05450767,0.1265 0.14664734,0.2576 0.22764928,0.3701 0.0621328,0.086 0.14771211,0.1609 0.23565754,0.2209 0.1619266,0.1103 0.38752214,0.2008 0.58872896,0.1946 0.4200024,-0.013 0.8307173,-0.3285 1.1803391,-0.5313 1.0868025,-0.6305 2.1942846,-1.2298 3.2826876,-1.8572 0.2987874,-0.1721 0.6026712,-0.3357 0.9014586,-0.5079 0.092138,-0.053 0.2481923,-0.1875 0.3576434,-0.1873 0.057255,0 0.117252,0.048 0.1653082,0.075 l 0.3495666,0.195 c 0.4649787,0.2572 0.9231869,0.5266 1.3850564,0.7883 0.6732468,0.3816 1.3548649,0.754 2.0186369,1.1511 0.169098,0.1012 0.343771,0.1941 0.515132,0.2917 0.06409,0.036 0.162144,0.071 0.201866,0.1365 0.02754,0.045 0.01889,0.1083 0.01891,0.1586 l 0,0.3446 0,1.2697 0,2.8659 c 0,0.4827 -0.01764,0.9688 3.31e-4,1.4511 0.0043,0.1147 0.0705,0.2101 0.07326,0.3265 0.06609,0.038 0.08691,0.1099 0.137251,0.1662 0.08275,0.092 0.180322,0.1503 0.282781,0.2169 0.03549,0.023 0.06152,0.061 0.101097,0.078 0.07946,0.033 0.203374,0.011 0.288392,0.011 l 0.643939,0 c 0.04813,-0.096 0.156532,-0.1358 0.23846,-0.2031 0.121796,-0.1002 0.230328,-0.2324 0.284345,-0.3804 0.0202,-0.055 0.0089,-0.1206 0.01146,-0.1783 0.0041,-0.091 0.01768,-0.1801 0.01768,-0.2721 l 0,-0.8706 0,-2.9566 0,-1.5056 -5.4e-5,-0.3809 c -2.59e-4,-0.051 -0.01047,-0.1124 0.02743,-0.1534 0.07981,-0.086 0.23776,-0.1404 0.340514,-0.197 0.250456,-0.138 0.498759,-0.2833 0.746601,-0.4261 0.804169,-0.4632 1.608374,-0.9247 2.417971,-1.3787 0.26637,-0.1495 0.534083,-0.2982 0.796312,-0.4544 0.08272,-0.049 0.245525,-0.1799 0.343716,-0.1718 0.111383,0.01 0.259158,0.1364 0.355381,0.191 0.298419,0.1693 0.596839,0.3398 0.896363,0.5077 0.926534,0.5195 1.857302,1.0345 2.77519,1.5672 0.254999,0.148 0.51607,0.2864 0.770334,0.4354 0.186558,0.1092 0.385443,0.2599 0.59408,0.3239 0.100823,0.031 0.26291,0.07 0.367964,0.062 0.390411,-0.026 0.702445,-0.275 0.898386,-0.5933 0.02502,-0.041 0.06752,-0.072 0.08482,-0.1174 0.02742,-0.072 0.0103,-0.1725 0.0103,-0.2485 l 0,-0.5441 c -0.10487,-0.053 -0.169079,-0.1827 -0.2504,-0.2668 -0.105054,-0.1085 -0.245801,-0.1836 -0.375876,-0.2589 -1.171784,-0.6782 -2.359942,-1.3311 -3.536878,-1.999 -0.371828,-0.211 -0.746232,-0.4183 -1.117141,-0.6315 -0.111493,-0.064 -0.34,-0.1424 -0.404209,-0.2559 -0.03845,-0.068 -0.01895,-0.1768 -0.01895,-0.2519 l 0,-0.5805 0,-2.1585 0,-1.6325 c 0,-0.1389 0.0037,-0.2783 -3.68e-4,-0.4171 -0.0014,-0.056 -0.03092,-0.1271 0.005,-0.176 0.03827,-0.052 0.106341,-0.081 0.160984,-0.1117 l 0.331352,-0.1863 c 0.391515,-0.2229 0.78487,-0.4424 1.177304,-0.6632 1.161297,-0.6532 2.320386,-1.308 3.477268,-1.9695 0.126027,-0.072 0.244879,-0.1538 0.34423,-0.2599 0.0701,-0.075 0.114806,-0.178 0.207716,-0.2249 l 0,-0.526 c 0,-0.077 0.01674,-0.1759 -0.01031,-0.2488 C 24.957355,7.15 24.909515,7.1037 24.880075,7.0537 24.749632,6.8332 24.551851,6.6389 24.307154,6.5444 24.060618,6.4494 23.693022,6.5014 23.466171,6.6164 23.05681,6.8238 22.663824,7.0715 22.26495,7.2979 c -0.879988,0.4996 -1.762368,0.9982 -2.644195,1.494 -0.337608,0.1898 -0.671904,0.386 -1.011904,0.5718 -0.08647,0.047 -0.170992,0.098 -0.257539,0.1451 -0.04178,0.023 -0.08292,0.059 -0.133773,0.055 -0.07606,-0.01 -0.173716,-0.084 -0.23938,-0.1207 C 17.809006,9.3491 17.641674,9.2511 17.473606,9.1551 16.836971,8.7911 16.197137,8.4309 15.560189,8.0667 15.084907,7.795 14.61382,7.5088 14.130076,7.2516 13.999539,7.1826 13.87423,7.1034 13.743712,7.034 13.688342,7.005 13.596416,6.968 13.570824,6.9067 c -0.04355,-0.1039 -0.0082,-0.2844 -0.0082,-0.3964 l 0,-0.907 0,-3.7003 c 0,-0.3469 0.02808,-0.7075 -0.01314,-1.052 C 13.531414,0.7 13.539884,0.5773 13.443584,0.4467 13.345504,0.3138 13.22321,0.2135 13.084543,0.125 13.041233,0.097 13.003263,0.054 12.952351,0.04 12.864511,0.016 12.7517,0.03 12.661107,0.03 l -0.607142,0 z"
     id="path10076"
     inkscape:connector-curvature="0" />
  <path
     style="fill:#fef2e5;stroke:none"
     d="m 12.992217,0.0345 c 0.04802,0.096 0.156551,0.1366 0.238902,0.2031 0.125825,0.1016 0.248191,0.2444 0.302301,0.3971 0.01989,0.056 0.0088,0.1214 0.01146,0.1797 0.0041,0.091 0.01768,0.1801 0.01768,0.2721 l 0,0.8525 0,2.9022 0,1.4874 -1.8e-5,0.4172 c -2.39e-4,0.052 -0.02027,0.1286 0.0036,0.1759 0.03111,0.062 0.136349,0.096 0.193624,0.129 0.171435,0.097 0.34412,0.1924 0.51515,0.2902 0.67643,0.3869 1.349916,0.7765 2.028995,1.1587 0.468032,0.2634 0.933637,0.5301 1.398543,0.7981 0.126358,0.073 0.25384,0.1434 0.382958,0.2112 0.04831,0.025 0.09179,0.064 0.150112,0.06 0.11865,-0.01 0.271392,-0.139 0.373319,-0.1969 0.256655,-0.1454 0.513126,-0.2912 0.770518,-0.4353 1.091384,-0.6114 2.177432,-1.2365 3.269,-1.8478 l 0.643938,-0.3628 c 0.11922,-0.067 0.238993,-0.1478 0.370908,-0.1883 0.172576,-0.053 0.394827,-0.036 0.570346,-0.01 0.212132,0.035 0.433094,0.2362 0.557651,0.3998 0.06568,0.086 0.09714,0.1977 0.196677,0.2508 l 0,-7.1466 -11.995653,0 z"
     id="path10078"
     inkscape:connector-curvature="0" />
  <path
     style="fill:#dc5e1f;stroke:none"
     d="m 14.500872,6.1653 c 0.0763,0.046 0.07758,0.143 0.121484,0.217 0.09267,0.1562 0.197045,0.2977 0.339191,0.4142 0.49287,0.4041 1.232424,0.432 1.760325,0.082 0.100549,-0.067 0.198057,-0.1522 0.277151,-0.2429 0.05301,-0.061 0.08019,-0.1394 0.151196,-0.1798 0.02256,-0.123 0.108016,-0.2268 0.139496,-0.3462 0.02486,-0.094 0.0077,-0.2099 0.0077,-0.3067 0,-0.2398 0.008,-0.4458 -0.08618,-0.6696 -0.150038,-0.3562 -0.531747,-0.6728 -0.907328,-0.7725 -0.137232,-0.036 -0.300351,-0.027 -0.441558,-0.027 -0.119275,0 -0.271982,-0.01 -0.386363,0.028 -0.291226,0.088 -0.554265,0.2868 -0.741909,0.5211 -0.09844,0.1229 -0.196751,0.2938 -0.228083,0.4482 -0.05523,0.2723 -0.0051,0.5602 -0.0051,0.8344 M 8.1719001,7.6892 C 8.1763501,7.6092 8.2218691,7.562 8.2399361,7.488 8.2647191,7.3865 8.2690981,7.2675 8.2791601,7.1632 8.2998401,6.9491 8.2456391,6.7412 8.2454911,6.5283 8.1522861,6.4723 8.1279263,6.317 8.0590801,6.2304 7.8609126,5.9811 7.576991,5.7311 7.2519861,5.6631 6.7267715,5.5531 6.142149,5.6971 5.7829785,6.1009 5.4315721,6.4958 5.3485041,7.0895 5.5332224,7.5773 5.659692,7.9112 5.970199,8.1849 6.2952776,8.3262 c 0.2726802,0.1186 0.6051549,0.111 0.9015137,0.088 0.061745,0 0.109028,-0.035 0.1655842,-0.056 C 7.5865764,8.2742 7.7795372,8.15 7.9408346,7.9726 7.9834076,7.9256 8.0322186,7.8786 8.0681872,7.8268 8.1057562,7.7728 8.1121582,7.724 8.1718981,7.6897 Z"
     id="path10080"
     inkscape:connector-curvature="0" />
  <path
     style="fill:#fef2e5;stroke:none"
     d="m 0.03985579,7.9066 0,12.1892 C 0.15533842,20.0398 0.18216986,19.9097 0.2639574,19.8185 0.38001535,19.6893 0.53466359,19.6041 0.68379421,19.5183 1.8876094,18.8252 3.1001823,18.1517 4.3082475,17.4661 4.6755684,17.2577 5.046017,17.0544 5.411866,16.8434 5.499,16.7934 5.5838895,16.7388 5.672845,16.6918 c 0.049712,-0.026 0.108752,-0.047 0.1329641,-0.1022 0.051147,-0.1163 0.011094,-0.322 0.011094,-0.448 l 0,-1.052 0,-3.7003 C 5.6512453,11.3123 5.4952466,11.2077 5.3356971,11.1183 5.0288144,10.9464 4.7194664,10.7781 4.4169809,10.5988 3.6652288,10.1531 2.8934778,9.7341 2.1320115,9.3044 1.74632,9.0868 1.3616606,8.8678 0.9753123,8.6515 0.75478547,8.528 0.51296452,8.4175 0.32610647,8.2453 0.21928978,8.1473 0.16303568,8.0203 0.07665208,7.9066 l -0.03679649,0 m 24.94801341,12.1167 0,-12.0441 c -0.08095,0.025 -0.106525,0.089 -0.156937,0.1521 -0.05612,0.07 -0.121429,0.1322 -0.192262,0.1873 -0.258495,0.2017 -0.573841,0.3374 -0.854413,0.507 -1.008224,0.6093 -2.059315,1.1554 -3.083177,1.7401 -0.344967,0.1971 -0.689565,0.396 -1.035638,0.5912 -0.109836,0.062 -0.324545,0.1253 -0.386914,0.2409 -0.03698,0.068 0.0059,0.2202 0.0059,0.2998 l 0,0.7981 0,2.9204 0,0.8706 c 0,0.094 -0.03146,0.2575 0.01895,0.3406 0.02981,0.049 0.09825,0.075 0.146634,0.1029 0.104134,0.059 0.206981,0.1213 0.31277,0.1777 0.353247,0.1883 0.696925,0.3952 1.045756,0.5907 1.07041,0.5995 2.133276,1.2134 3.204237,1.814 0.220781,0.1239 0.46658,0.2358 0.660683,0.3991 0.103214,0.087 0.185822,0.2724 0.314425,0.3116 M 12.513875,19.2796 c 1.137583,-0.6276 2.254705,-1.2912 3.388129,-1.9262 0.300315,-0.1682 0.598366,-0.341 0.898662,-0.51 0.08956,-0.05 0.295274,-0.1195 0.338473,-0.2161 0.04226,-0.095 0.0111,-0.2566 0.0111,-0.3587 l 0,-0.8163 0,-2.8477 0,-0.8888 c 0,-0.093 0.03512,-0.2749 -0.01889,-0.355 -0.04059,-0.06 -0.152834,-0.096 -0.215094,-0.1313 -0.173864,-0.099 -0.346476,-0.1997 -0.520339,-0.2986 L 14.482499,9.8426 C 14.01327,9.5755 13.537547,9.3181 13.073635,9.0434 c -0.118356,-0.07 -0.23857,-0.1373 -0.357368,-0.207 -0.05692,-0.033 -0.126598,-0.088 -0.197118,-0.082 -0.09773,0.01 -0.215995,0.1063 -0.299634,0.1532 -0.221294,0.1241 -0.440583,0.2519 -0.662337,0.3753 -0.851507,0.474 -1.6880015,0.9765 -2.5413486,1.4474 -0.2708038,0.1495 -0.5379829,0.3064 -0.8071308,0.4591 -0.091641,0.052 -0.2659098,0.1111 -0.3153827,0.2085 -0.03652,0.072 -0.015785,0.1853 -0.015785,0.2635 l 0,0.5805 0,2.1222 0,1.6869 0,0.3991 c 3.67e-5,0.067 -0.00808,0.1413 0.042647,0.1941 0.082977,0.086 0.2368957,0.1398 0.3405882,0.2008 0.2544661,0.1495 0.51447,0.2895 0.7706655,0.436 0.7437489,0.4254 1.4841324,0.8547 2.2313764,1.2735 0.253822,0.1422 0.504608,0.2899 0.75718,0.4337 0.165105,0.094 0.342851,0.1759 0.4939,0.2915 z"
     id="path10082"
     inkscape:connector-curvature="0" />
  <path
     style="fill:#dc5e1f;stroke:none"
     d="m 20.167531,12.3325 c -0.0025,0.082 -0.04489,0.1262 -0.06568,0.2011 -0.03036,0.1096 -0.02576,0.2652 -0.02631,0.3793 -7.36e-4,0.1386 -0.0027,0.2984 0.02263,0.4346 0.0149,0.081 0.06661,0.1319 0.06936,0.2184 0.06034,0.036 0.0701,0.097 0.111126,0.1521 0.08684,0.1162 0.174415,0.2259 0.2883,0.3176 0.4675,0.3763 1.181903,0.4433 1.692638,0.1079 0.161169,-0.1057 0.27947,-0.2314 0.402738,-0.3765 0.05538,-0.065 0.07985,-0.1606 0.154544,-0.2011 0.0013,-0.1188 0.07158,-0.2085 0.0736,-0.3265 0.0035,-0.2062 0.02245,-0.4301 -0.0024,-0.6348 -0.01196,-0.098 -0.07009,-0.1689 -0.0712,-0.2721 -0.07469,-0.041 -0.09898,-0.1359 -0.154545,-0.2012 -0.1229,-0.1443 -0.242673,-0.2714 -0.402737,-0.3764 -0.53539,-0.3516 -1.244089,-0.2507 -1.7241,0.1353 -0.101555,0.082 -0.180303,0.1859 -0.256655,0.2902 -0.04139,0.057 -0.04783,0.1156 -0.11131,0.1521 M 2.2844404,14.8719 c 0,0.2941 -0.063879,0.6128 0.0055,0.9038 0.012253,0.051 0.046621,0.098 0.064486,0.1483 0.2478059,0.6959 1.1851227,1.0062 1.8434301,0.7452 0.3345352,-0.1327 0.6331018,-0.4121 0.7889165,-0.7323 0.021397,-0.044 0.019704,-0.093 0.036668,-0.1383 0.014608,-0.039 0.042537,-0.071 0.05203,-0.1121 0.025757,-0.1115 0.0055,-0.2471 0.0055,-0.3611 0,-0.1632 -0.00284,-0.285 -0.058028,-0.437 -0.078873,-0.2171 -0.1891523,-0.3978 -0.3614518,-0.56 -0.1888763,-0.1778 -0.4096,-0.2986 -0.6660163,-0.3409 -0.1095615,-0.018 -0.2190311,-0.056 -0.3311684,-0.056 -0.099001,10e-5 -0.197597,0.033 -0.2943718,0.05 -0.066105,0.011 -0.1396794,0.012 -0.2023807,0.036 -0.2299596,0.089 -0.4665793,0.2408 -0.6165434,0.4371 -0.060733,0.079 -0.1228634,0.1643 -0.1678655,0.2537 -0.03227,0.064 -0.034147,0.1242 -0.098706,0.1632 z"
     id="path10084"
     inkscape:connector-curvature="0" />
  <path
     style="fill:#fef2e5;stroke:none"
     d="m 0.03985579,20.7488 0,7.2192 12.01405021,0 c -0.05501,-0.1324 -0.248284,-0.1962 -0.346917,-0.3054 -0.05142,-0.057 -0.0756,-0.1406 -0.149835,-0.1662 -0.0011,-0.1237 -0.06875,-0.224 -0.07326,-0.3446 -0.01798,-0.4823 -3.31e-4,-0.9684 -3.31e-4,-1.4511 l 0,-2.8841 0,-1.2697 0,-0.3265 c -1.9e-5,-0.049 0.0093,-0.1119 -0.01891,-0.1549 -0.04088,-0.062 -0.138944,-0.097 -0.201866,-0.1328 -0.158923,-0.091 -0.32057,-0.1773 -0.478354,-0.2699 C 10.158617,20.2955 9.5151018,19.9567 8.8910702,19.5856 8.3876576,19.2863 7.8755426,18.9963 7.3623604,18.7124 L 6.9943956,18.5072 c -0.054256,-0.03 -0.1172887,-0.08 -0.1832648,-0.07 -0.1184479,0.018 -0.2530679,0.1346 -0.3554724,0.1931 -0.299321,0.1713 -0.6023768,0.336 -0.9013114,0.5079 C 4.5797921,19.6987 3.5946768,20.2454 2.615688,20.7986 2.2914374,20.982 1.9684011,21.167 1.6433613,21.3488 1.5134145,21.4218 1.3977356,21.4573 1.2541447,21.491 1.1930097,21.505 1.1341661,21.53 1.0701623,21.523 0.77812515,21.49 0.49402504,21.3613 0.30818258,21.1288 0.21819588,21.0162 0.16297575,20.8233 0.03986079,20.7495 m 12.97075921,7.2192 11.977255,0 0,-7.1285 c -0.112045,0.054 -0.151418,0.191 -0.236234,0.2794 -0.207347,0.2163 -0.448917,0.3774 -0.757271,0.4054 -0.06348,0.01 -0.123268,-0.02 -0.183983,-0.034 -0.152153,-0.036 -0.265486,-0.07 -0.40476,-0.1464 -0.298052,-0.1647 -0.59224,-0.3359 -0.888268,-0.5037 -1.009327,-0.5717 -2.022334,-1.1377 -3.030557,-1.7134 -0.292532,-0.167 -0.586536,-0.3326 -0.880172,-0.4972 -0.101927,-0.057 -0.253676,-0.1888 -0.371572,-0.1968 -0.05768,0 -0.101834,0.035 -0.149375,0.06 -0.12474,0.067 -0.247291,0.1384 -0.370099,0.209 -0.464905,0.2674 -0.93257,0.5316 -1.398469,0.7981 -0.679244,0.3885 -1.361267,0.7749 -2.042205,1.1609 -0.170128,0.097 -0.339208,0.1942 -0.509962,0.29 -0.05705,0.032 -0.167498,0.069 -0.198737,0.1292 -0.02598,0.05 -0.0038,0.1389 -0.0037,0.194 l 0,0.4717 0,1.6868 0,2.612 0,0.8163 c 0,0.1521 0.01218,0.3413 -0.02416,0.489 -0.0395,0.1605 -0.181297,0.3129 -0.307288,0.4143 -0.07902,0.064 -0.190257,0.1026 -0.220503,0.2031 z"
     id="path10086"
     inkscape:connector-curvature="0" />
  <path
     style="fill:#dc5e1f;stroke:none"
     d="m 17.610176,19.6041 c -0.413979,0.1507 -0.791843,0.4177 -0.959689,0.838 -0.02048,0.051 -0.01796,0.1086 -0.03335,0.1616 -0.01779,0.061 -0.04518,0.1174 -0.05245,0.1814 -0.07814,0.6887 0.342354,1.3517 1.027101,1.55 0.121575,0.035 0.278511,0.028 0.40476,0.028 0.128034,0 0.302983,0.011 0.42316,-0.035 0.408441,-0.1563 0.766655,-0.4353 0.922856,-0.8539 0.02336,-0.063 0.023,-0.1344 0.03827,-0.1996 0.02079,-0.089 0.04931,-0.1795 0.04931,-0.272 0,-0.6255 -0.435854,-1.2737 -1.084025,-1.4094 -0.109322,-0.023 -0.238091,-0.01 -0.349567,-0.01 -0.119422,0 -0.273066,-0.025 -0.386362,0.016 m -6.936137,2.3782 c -0.06502,-0.037 -0.06447,-0.091 -0.09889,-0.1528 -0.05635,-0.101 -0.128106,-0.1893 -0.205766,-0.2753 -0.18906,-0.2092 -0.4162965,-0.3102 -0.6704498,-0.4134 -0.1238018,-0.05 -0.27303,-0.029 -0.4047613,-0.029 -0.1001788,0 -0.2144131,-0.015 -0.3127701,0.01 -0.4262137,0.088 -0.8649565,0.4433 -1.0170179,0.8487 -0.2482107,0.6619 0.00454,1.4107 0.6306548,1.7653 0.230162,0.1302 0.4565707,0.1558 0.7175314,0.1558 0.2729011,0 0.4992914,-0.035 0.7359299,-0.1768 0.268854,-0.1609 0.44406,-0.3804 0.577392,-0.6559 0.09286,-0.1919 0.123194,-0.4606 0.100142,-0.6728 -0.01472,-0.1355 -0.0519,-0.261 -0.05199,-0.399 z"
     id="path10088"
     inkscape:connector-curvature="0" />
  <path
     style="fill:#ffffff"
     d="M 4.1143806,8.017 C 1.5635271,6.5653 1.4485481,6.5076 1.1075775,6.5076 0.6763919,6.5076 0.37163679,6.6863 0.15178664,7.0682 L 0.00154338,7.3292 0.01743833,3.6814 0.03333329,0.0336 6.0305377,0.0166 12.027743,-4e-4 11.763862,0.266 l -0.26388,0.2664 -0.02082,3.201 -0.02082,3.201 -2.2640089,1.2817 C 7.9491284,8.921 6.8935014,9.5041 6.8484959,9.5118 6.8034899,9.5218 5.5731434,8.8467 4.1143917,8.0166 Z M 7.5324439,8.3141 C 8.2753668,7.9292 8.5383903,6.9471 8.0837078,6.2557 7.5052119,5.3761 6.152379,5.4002 5.6160682,6.2997 5.3671991,6.7171 5.3586018,7.3288 5.5958382,7.739 5.7842393,8.0648 6.1698664,8.3489 6.5193478,8.4193 6.8237263,8.4803 7.3082177,8.4303 7.5324433,8.3141 Z"
     id="path10182"
     inkscape:connector-curvature="0" />
  <path
     style="fill:#ffffff"
     d="M 15.933309,8.2793 C 14.741644,7.5965 13.727729,7.0146 13.680163,6.9863 13.611333,6.9453 13.593853,6.3311 13.594523,3.9771 13.594992,2.3504 13.569143,0.8868 13.537103,0.7247 13.493033,0.5017 13.416438,0.3779 13.22274,0.2163 l -0.25609,-0.2136 6.016657,-0.001 6.016659,-0.001 0,3.5819 0,3.5818 L 24.67889,6.836 C 24.370502,6.5206 24.343495,6.5076 23.995557,6.5087 c -0.350087,10e-4 -0.451699,0.052 -3.024724,1.5117 -1.464356,0.8308 -2.709356,1.5083 -2.766663,1.5055 -0.05731,0 -1.079193,-0.5638 -2.270858,-1.2466 z M 16.54639,6.9965 c 0.54085,-0.2691 0.786917,-0.6668 0.786917,-1.2717 0,-0.4619 -0.197352,-0.8708 -0.556136,-1.1523 -0.231971,-0.182 -0.309295,-0.2032 -0.819537,-0.2243 -0.514316,-0.021 -0.585912,-0.01 -0.821801,0.1453 -0.142121,0.093 -0.342983,0.2779 -0.446361,0.4115 -0.157515,0.2036 -0.191884,0.3196 -0.212185,0.7159 -0.0257,0.5018 0.05777,0.76 0.347155,1.0737 0.4071,0.4412 1.172398,0.5754 1.721948,0.3019 z"
     id="path10184"
     inkscape:connector-curvature="0" />
  <path
     style="fill:#ffffff"
     d="M 10.420352,18.0487 C 9.2765572,17.3946 8.2487174,16.8089 8.1362642,16.747 l -0.20446,-0.1123 0.017425,-2.6367 0.017425,-2.6367 2.2333298,-1.2745 c 1.228331,-0.701 2.271118,-1.2755 2.317304,-1.2767 0.04619,0 1.096185,0.5727 2.33333,1.2753 l 2.249355,1.2775 0.01742,2.6312 0.01742,2.6313 -0.150754,0.091 c -0.213085,0.1284 -4.410306,2.4952 -4.450748,2.5098 -0.01833,0.01 -0.969167,-0.5231 -2.112962,-1.1773 z"
     id="path10186"
     inkscape:connector-curvature="0" />
  <path
     style="fill:#ffffff"
     d="M 0,13.9931 0,7.8709 0.24999961,8.1413 c 0.17848763,0.193 0.81256059,0.5864 2.21666329,1.3753 1.081665,0.6077 2.2737837,1.2811 2.6491526,1.4963 l 0.682489,0.3913 8.426e-4,2.6033 8.427e-4,2.6033 -2.6166628,1.4698 C 1.3575556,19.1062 0.48102805,19.6358 0.2833329,19.8328 L 0,20.1152 0,13.9931 Z m 4.325628,2.6402 C 4.8693209,16.3598 5.1799379,15.8112 5.1118723,15.2446 5.0387453,14.6359 4.6553996,14.1422 4.1479234,14.0032 3.4128786,13.802 2.7700753,14.0342 2.3914991,14.6383 2.2167767,14.917 2.1917314,15.7139 2.3485441,16.005 c 0.1430931,0.2656 0.4347327,0.53 0.7181176,0.6511 0.3366372,0.1437 0.9499049,0.1326 1.258966,-0.023 z"
     id="path10188"
     inkscape:connector-curvature="0" />
  <path
     style="fill:#ffffff"
     d="M 0.04444438,27.9562 C 0.01999997,27.9322 9.362846e-4,26.2832 0.00208063,24.292 L 0.00416127,20.6715 0.166947,20.9328 c 0.30829493,0.4949 0.76123345,0.6967 1.2116633,0.54 0.1400963,-0.049 1.4097189,-0.7458 2.8213833,-1.549 1.5383274,-0.8752 2.6133986,-1.4483 2.6833127,-1.4305 0.064157,0.016 1.1205869,0.6007 2.347621,1.2984 l 2.2309707,1.2685 0.01905,3.2147 0.01904,3.2148 0.3,0.2549 0.3,0.255 -6.0055467,2e-4 c -3.3030507,0 -6.02554643,-0.02 -6.04999084,-0.044 z M 9.7518073,23.8553 c 0.5860247,-0.1604 0.9815087,-0.7242 0.9815087,-1.3991 0,-0.3686 -0.0276,-0.4622 -0.216665,-0.7351 -0.300277,-0.4333 -0.6823265,-0.6223 -1.2580997,-0.6223 -0.3901867,0 -0.4820087,0.026 -0.7638962,0.2136 -0.4201127,0.2801 -0.6285058,0.6661 -0.6265364,1.1605 0.00403,1.0129 0.8813993,1.6568 1.8836886,1.3824 z"
     id="path10190"
     inkscape:connector-curvature="0" />
  <path
     style="fill:#ffffff"
     d="m 13.220398,27.7854 c 0.173144,-0.1451 0.273231,-0.2961 0.315076,-0.4755 0.03373,-0.1446 0.06204,-1.6155 0.06292,-3.2686 l 0.0016,-3.0056 0.249999,-0.1264 c 0.1375,-0.07 1.162202,-0.6468 2.277116,-1.283 1.114913,-0.6361 2.068008,-1.1566 2.117988,-1.1566 0.04998,0 0.202775,0.069 0.339548,0.1542 0.74635,0.4626 4.995992,2.8261 5.169776,2.8752 0.324976,0.092 0.660797,-0.035 0.970745,-0.3664 L 25,20.8388 25,24.4194 25,28 18.983341,27.999 12.966685,27.998 13.220436,27.7854 Z m 5.298382,-5.474 c 0.292136,-0.1202 0.649799,-0.4426 0.798158,-0.7197 0.148425,-0.2772 0.142836,-0.9262 -0.01047,-1.2159 -0.309492,-0.5849 -0.650814,-0.7888 -1.319852,-0.7885 -0.420251,3e-4 -0.524684,0.025 -0.765479,0.1827 -0.508907,0.3329 -0.727472,0.7674 -0.672051,1.3361 0.09056,0.9291 1.115706,1.5564 1.969695,1.2053 z"
     id="path10192"
     inkscape:connector-curvature="0" />
  <path
     style="fill:#ffffff"
     d="m 24.765347,19.7908 c -0.109295,-0.1049 -1.368715,-0.8503 -2.798713,-1.6565 -1.429997,-0.8062 -2.622036,-1.4968 -2.648974,-1.5347 -0.02694,-0.038 -0.04944,-1.2247 -0.05,-2.6374 l -10e-4,-2.5687 2.616663,-1.4728 C 23.322486,9.1106 24.612485,8.348 24.749984,8.2259 l 0.250001,-0.2219 0,5.9887 c 0,3.2938 -0.008,5.9887 -0.01795,5.9887 -0.0099,0 -0.107371,-0.086 -0.216667,-0.1906 z m -2.57754,-5.5872 c 0.144995,-0.073 0.364546,-0.2582 0.487894,-0.4117 0.215153,-0.2678 0.224265,-0.3021 0.224265,-0.8432 0,-0.541 -0.0091,-0.5753 -0.224265,-0.8431 -0.618014,-0.7693 -1.735716,-0.7664 -2.365592,0.01 -0.160919,0.1974 -0.207589,0.3267 -0.230474,0.6386 -0.04536,0.6183 0.02299,0.8317 0.378621,1.1823 0.480859,0.4741 1.125118,0.5751 1.729551,0.271 z"
     id="path10194"
     inkscape:connector-curvature="0" />
</svg>
