<?xml version="1.0" encoding="UTF-8" standalone="no"?>
<svg
   xmlns:dc="http://purl.org/dc/elements/1.1/"
   xmlns:cc="http://creativecommons.org/ns#"
   xmlns:rdf="http://www.w3.org/1999/02/22-rdf-syntax-ns#"
   xmlns:svg="http://www.w3.org/2000/svg"
   xmlns="http://www.w3.org/2000/svg"
   xmlns:sodipodi="http://sodipodi.sourceforge.net/DTD/sodipodi-0.dtd"
   xmlns:inkscape="http://www.inkscape.org/namespaces/inkscape"
   width="25"
   height="28"
   id="svg10072"
   version="1.1"
   inkscape:version="0.91 r13725"
   sodipodi:docname="logo.svg">
  <metadata
     id="metadata10094">
    <rdf:RDF>
      <cc:Work
         rdf:about="">
        <dc:format>image/svg+xml</dc:format>
        <dc:type
           rdf:resource="http://purl.org/dc/dcmitype/StillImage" />
        <dc:title></dc:title>
      </cc:Work>
    </rdf:RDF>
  </metadata>
  <defs
     id="defs10092" />
  <sodipodi:namedview
     pagecolor="#ffffff"
     bordercolor="#666666"
     borderopacity="1"
     objecttolerance="10"
     gridtolerance="10"
     guidetolerance="10"
     inkscape:pageopacity="0"
     inkscape:pageshadow="2"
     inkscape:window-width="1920"
     inkscape:window-height="1024"
     id="namedview10090"
     showgrid="false"
     inkscape:zoom="17.662338"
     inkscape:cx="27.282465"
     inkscape:cy="11.112455"
     inkscape:window-x="0"
     inkscape:window-y="0"
     inkscape:window-maximized="1"
     inkscape:current-layer="svg10072" />
  <path
     style="fill:#dc5e1f;stroke:none"
     d="M 12.054688 0.029296875 L 12.054688 0.03515625 C 11.994438 0.15555625 11.818747 0.2151 11.720703 0.3125 C 11.659813 0.3735 11.630234 0.46365938 11.556641 0.50585938 C 11.553941 0.62235938 11.488665 0.71733125 11.484375 0.83203125 C 11.458965 1.5131313 11.484375 2.2011125 11.484375 2.8828125 L 11.484375 6.9628906 C 11.341788 6.9828906 11.216741 7.0930094 11.09375 7.1621094 C 10.836193 7.3068094 10.576363 7.4490094 10.322266 7.5996094 C 9.5097438 8.0811094 8.6779863 8.5267469 7.859375 8.9980469 C 7.6355604 9.1268469 7.4074849 9.2513125 7.1855469 9.3828125 C 7.0933909 9.4378125 6.955194 9.5529531 6.8476562 9.5644531 C 6.7988643 9.5744531 6.7584727 9.538625 6.71875 9.515625 C 6.633364 9.466625 6.5469309 9.4171406 6.4609375 9.3691406 C 6.123477 9.1792406 5.7851706 8.9928813 5.4492188 8.8007812 C 4.4823545 8.2479813 3.5108451 7.7045437 2.5429688 7.1523438 C 2.3228522 7.0266438 2.0988756 6.9051969 1.8789062 6.7792969 C 1.7339577 6.6962969 1.5811476 6.5861094 1.4199219 6.5371094 C 1.2885769 6.4971094 1.114705 6.5027187 0.97851562 6.5117188 C 0.58337847 6.5387188 0.29717336 6.8061312 0.1328125 7.1445312 C 0.1077609 7.1965312 0.059188585 7.2367688 0.044921875 7.2929688 C 0.021311585 7.3859687 0.0390625 7.5018563 0.0390625 7.5976562 C 0.0390625 7.6836563 0.01993048 7.8008125 0.05078125 7.8828125 C 0.06807481 7.9288125 0.10847858 7.9616531 0.13476562 8.0019531 C 0.21044472 8.1191531 0.27397587 8.2151406 0.3828125 8.3066406 C 0.52077906 8.4226406 0.69032998 8.4976906 0.84570312 8.5878906 C 1.0956119 8.7328906 1.3476668 8.8757719 1.6015625 9.0136719 C 2.3381691 9.4140719 3.063313 9.8418594 3.7929688 10.255859 C 4.2583707 10.519959 4.7237596 10.785222 5.1914062 11.044922 C 5.3883593 11.154222 5.6000429 11.325972 5.8164062 11.388672 L 5.8164062 15.234375 L 5.8164062 16.232422 C 5.8164062 16.333122 5.8532154 16.520216 5.7871094 16.603516 C 5.7016494 16.711216 5.4947725 16.785016 5.375 16.853516 C 5.0451195 17.042116 4.7149007 17.227209 4.3828125 17.412109 C 3.316616 18.005609 2.2655255 18.623997 1.1992188 19.216797 C 0.88885702 19.389297 0.48860417 19.548659 0.25195312 19.818359 C 0.20401263 19.873359 0.17496626 19.9392 0.13671875 20 C 0.11085125 20.041 0.06889717 20.073841 0.05078125 20.119141 C 0.0149756 20.209141 0.0390625 20.344053 0.0390625 20.439453 C 0.0390625 20.530453 0.01782693 20.654834 0.0546875 20.740234 C 0.10919517 20.866734 0.20220118 20.996875 0.28320312 21.109375 C 0.34533592 21.195375 0.42963269 21.270078 0.51757812 21.330078 C 0.67950473 21.440378 0.90621505 21.531591 1.1074219 21.525391 C 1.5274243 21.512391 1.9374876 21.196941 2.2871094 20.994141 C 3.3739119 20.363641 4.4819095 19.764119 5.5703125 19.136719 C 5.8690999 18.964619 6.1719157 18.801106 6.4707031 18.628906 C 6.5628411 18.575906 6.7186739 18.441206 6.828125 18.441406 C 6.88538 18.441406 6.9460844 18.490578 6.9941406 18.517578 L 7.34375 18.710938 C 7.8087287 18.968138 8.2666461 19.2383 8.7285156 19.5 C 9.4017624 19.8816 10.084275 20.253291 10.748047 20.650391 C 10.917145 20.751591 11.092311 20.845759 11.263672 20.943359 C 11.327762 20.979359 11.425122 21.014578 11.464844 21.080078 C 11.492384 21.125078 11.484355 21.187981 11.484375 21.238281 L 11.484375 21.582031 L 11.484375 22.851562 L 11.484375 25.71875 C 11.484375 26.20145 11.466404 26.687622 11.484375 27.169922 C 11.488675 27.284622 11.553881 27.379694 11.556641 27.496094 C 11.622731 27.534094 11.644971 27.605809 11.695312 27.662109 C 11.778063 27.754109 11.874104 27.812306 11.976562 27.878906 C 12.012052 27.901906 12.038548 27.940031 12.078125 27.957031 C 12.157585 27.990031 12.28217 27.96875 12.367188 27.96875 L 13.009766 27.96875 C 13.057896 27.87275 13.168072 27.832925 13.25 27.765625 C 13.371796 27.665425 13.479186 27.532766 13.533203 27.384766 C 13.553403 27.329766 13.542362 27.264731 13.544922 27.207031 C 13.549022 27.116031 13.5625 27.025594 13.5625 26.933594 L 13.5625 26.064453 L 13.5625 23.107422 L 13.5625 21.601562 L 13.5625 21.220703 C 13.562241 21.169703 13.551944 21.107406 13.589844 21.066406 C 13.669654 20.980406 13.826933 20.925741 13.929688 20.869141 C 14.180143 20.731141 14.429892 20.586159 14.677734 20.443359 C 15.481903 19.980159 16.286106 19.518453 17.095703 19.064453 C 17.362073 18.914953 17.628396 18.767528 17.890625 18.611328 C 17.973345 18.562328 18.136184 18.431353 18.234375 18.439453 C 18.345758 18.449453 18.493621 18.576259 18.589844 18.630859 C 18.888263 18.800159 19.186804 18.970772 19.486328 19.138672 C 20.412862 19.658172 21.343831 20.172378 22.261719 20.705078 C 22.516718 20.853078 22.778939 20.991625 23.033203 21.140625 C 23.219761 21.249825 23.418316 21.400844 23.626953 21.464844 C 23.727776 21.495844 23.889087 21.533391 23.994141 21.525391 C 24.384552 21.499391 24.696637 21.251894 24.892578 20.933594 C 24.917598 20.892594 24.961216 20.861806 24.978516 20.816406 C 25.005936 20.744406 24.988281 20.642406 24.988281 20.566406 L 24.988281 20.023438 C 24.883411 19.970437 24.819602 19.839959 24.738281 19.755859 C 24.633227 19.647359 24.491403 19.573347 24.361328 19.498047 C 23.189544 18.819847 22.001155 18.165947 20.824219 17.498047 C 20.452391 17.287047 20.07794 17.080387 19.707031 16.867188 C 19.595538 16.803187 19.366943 16.724828 19.302734 16.611328 C 19.264284 16.543328 19.285156 16.434475 19.285156 16.359375 L 19.285156 15.779297 L 19.285156 13.619141 L 19.285156 11.988281 C 19.285156 11.849381 19.287271 11.709113 19.283203 11.570312 C 19.281803 11.514313 19.253143 11.443431 19.289062 11.394531 C 19.327333 11.342531 19.394576 11.313903 19.449219 11.283203 L 19.78125 11.095703 C 20.172765 10.872803 20.56655 10.654394 20.958984 10.433594 C 22.120281 9.7803937 23.278665 9.1243906 24.435547 8.4628906 C 24.561574 8.3908906 24.679946 8.309225 24.779297 8.203125 C 24.849397 8.128125 24.895371 8.0254156 24.988281 7.9785156 L 24.988281 7.453125 C 24.988281 7.376125 25.005566 7.276025 24.978516 7.203125 C 24.958286 7.149125 24.910299 7.1027344 24.880859 7.0527344 C 24.750416 6.8322344 24.551338 6.6394219 24.306641 6.5449219 C 24.060105 6.4499219 23.693648 6.5021875 23.466797 6.6171875 C 23.057436 6.8245875 22.664499 7.0724281 22.265625 7.2988281 C 21.385637 7.7984281 20.502921 8.2952156 19.621094 8.7910156 C 19.283486 8.9808156 18.949375 9.1774813 18.609375 9.3632812 C 18.522905 9.4102813 18.438109 9.4626656 18.351562 9.5097656 C 18.309783 9.5327656 18.26765 9.5684531 18.216797 9.5644531 C 18.140737 9.5544531 18.04418 9.4800594 17.978516 9.4433594 C 17.809363 9.3493594 17.640724 9.2502969 17.472656 9.1542969 C 16.836021 8.7902969 16.197495 8.4306063 15.560547 8.0664062 C 15.085265 7.7947062 14.614603 7.5091531 14.130859 7.2519531 C 14.000322 7.1829531 13.874659 7.1026031 13.744141 7.0332031 C 13.688771 7.0042031 13.595904 6.96755 13.570312 6.90625 C 13.526763 6.80235 13.5625 6.6217656 13.5625 6.5097656 L 13.5625 5.6035156 L 13.5625 1.9023438 C 13.5625 1.5554438 13.590048 1.1960625 13.548828 0.8515625 C 13.530758 0.7005625 13.539659 0.57786563 13.443359 0.44726562 C 13.345279 0.31436563 13.222651 0.2135 13.083984 0.125 C 13.040674 0.097 13.004037 0.0530625 12.953125 0.0390625 C 12.865285 0.0150625 12.750749 0.029296875 12.660156 0.029296875 L 12.054688 0.029296875 z M 12.517578 8.8105469 C 12.563768 8.8105469 13.614417 9.3833375 14.851562 10.085938 L 17.099609 11.363281 L 17.117188 13.994141 L 17.134766 16.625 L 16.984375 16.716797 C 16.77129 16.845197 12.573645 19.211963 12.533203 19.226562 C 12.514873 19.236563 11.563717 18.703028 10.419922 18.048828 C 9.2761271 17.394728 8.2491719 16.807994 8.1367188 16.746094 L 7.9316406 16.634766 L 7.9492188 13.998047 L 7.9667969 11.361328 L 10.199219 10.085938 C 11.42755 9.3849375 12.471392 8.8117469 12.517578 8.8105469 z "
     id="path10076" />
  <path
     style="fill:#dc5e1f;stroke:none"
     d="m 14.500872,6.1653 c 0.0763,0.046 0.07758,0.143 0.121484,0.217 0.09267,0.1562 0.197045,0.2977 0.339191,0.4142 0.49287,0.4041 1.232424,0.432 1.760325,0.082 0.100549,-0.067 0.198057,-0.1522 0.277151,-0.2429 0.05301,-0.061 0.08019,-0.1394 0.151196,-0.1798 0.02256,-0.123 0.108016,-0.2268 0.139496,-0.3462 0.02486,-0.094 0.0077,-0.2099 0.0077,-0.3067 0,-0.2398 0.008,-0.4458 -0.08618,-0.6696 -0.150038,-0.3562 -0.531747,-0.6728 -0.907328,-0.7725 -0.137232,-0.036 -0.300351,-0.027 -0.441558,-0.027 -0.119275,0 -0.271982,-0.01 -0.386363,0.028 -0.291226,0.088 -0.554265,0.2868 -0.741909,0.5211 -0.09844,0.1229 -0.196751,0.2938 -0.228083,0.4482 -0.05523,0.2723 -0.0051,0.5602 -0.0051,0.8344 M 8.1719001,7.6892 C 8.1763501,7.6092 8.2218691,7.562 8.2399361,7.488 8.2647191,7.3865 8.2690981,7.2675 8.2791601,7.1632 8.2998401,6.9491 8.2456391,6.7412 8.2454911,6.5283 8.1522861,6.4723 8.1279263,6.317 8.0590801,6.2304 7.8609126,5.9811 7.576991,5.7311 7.2519861,5.6631 6.7267715,5.5531 6.142149,5.6971 5.7829785,6.1009 5.4315721,6.4958 5.3485041,7.0895 5.5332224,7.5773 5.659692,7.9112 5.970199,8.1849 6.2952776,8.3262 c 0.2726802,0.1186 0.6051549,0.111 0.9015137,0.088 0.061745,0 0.109028,-0.035 0.1655842,-0.056 C 7.5865764,8.2742 7.7795372,8.15 7.9408346,7.9726 7.9834076,7.9256 8.0322186,7.8786 8.0681872,7.8268 8.1057562,7.7728 8.1121582,7.724 8.1718981,7.6897 Z"
     id="path10080"
     inkscape:connector-curvature="0" />
  <path
     style="fill:#dc5e1f;stroke:none"
     d="m 20.167531,12.3325 c -0.0025,0.082 -0.04489,0.1262 -0.06568,0.2011 -0.03036,0.1096 -0.02576,0.2652 -0.02631,0.3793 -7.36e-4,0.1386 -0.0027,0.2984 0.02263,0.4346 0.0149,0.081 0.06661,0.1319 0.06936,0.2184 0.06034,0.036 0.0701,0.097 0.111126,0.1521 0.08684,0.1162 0.174415,0.2259 0.2883,0.3176 0.4675,0.3763 1.181903,0.4433 1.692638,0.1079 0.161169,-0.1057 0.27947,-0.2314 0.402738,-0.3765 0.05538,-0.065 0.07985,-0.1606 0.154544,-0.2011 0.0013,-0.1188 0.07158,-0.2085 0.0736,-0.3265 0.0035,-0.2062 0.02245,-0.4301 -0.0024,-0.6348 -0.01196,-0.098 -0.07009,-0.1689 -0.0712,-0.2721 -0.07469,-0.041 -0.09898,-0.1359 -0.154545,-0.2012 -0.1229,-0.1443 -0.242673,-0.2714 -0.402737,-0.3764 -0.53539,-0.3516 -1.244089,-0.2507 -1.7241,0.1353 -0.101555,0.082 -0.180303,0.1859 -0.256655,0.2902 -0.04139,0.057 -0.04783,0.1156 -0.11131,0.1521 M 2.2844404,14.8719 c 0,0.2941 -0.063879,0.6128 0.0055,0.9038 0.012253,0.051 0.046621,0.098 0.064486,0.1483 0.2478059,0.6959 1.1851227,1.0062 1.8434301,0.7452 0.3345352,-0.1327 0.6331018,-0.4121 0.7889165,-0.7323 0.021397,-0.044 0.019704,-0.093 0.036668,-0.1383 0.014608,-0.039 0.042537,-0.071 0.05203,-0.1121 0.025757,-0.1115 0.0055,-0.2471 0.0055,-0.3611 0,-0.1632 -0.00284,-0.285 -0.058028,-0.437 -0.078873,-0.2171 -0.1891523,-0.3978 -0.3614518,-0.56 -0.1888763,-0.1778 -0.4096,-0.2986 -0.6660163,-0.3409 -0.1095615,-0.018 -0.2190311,-0.056 -0.3311684,-0.056 -0.099001,10e-5 -0.197597,0.033 -0.2943718,0.05 -0.066105,0.011 -0.1396794,0.012 -0.2023807,0.036 -0.2299596,0.089 -0.4665793,0.2408 -0.6165434,0.4371 -0.060733,0.079 -0.1228634,0.1643 -0.1678655,0.2537 -0.03227,0.064 -0.034147,0.1242 -0.098706,0.1632 z"
     id="path10084"
     inkscape:connector-curvature="0" />
  <path
     style="fill:#dc5e1f;stroke:none"
     d="m 17.610176,19.6041 c -0.413979,0.1507 -0.791843,0.4177 -0.959689,0.838 -0.02048,0.051 -0.01796,0.1086 -0.03335,0.1616 -0.01779,0.061 -0.04518,0.1174 -0.05245,0.1814 -0.07814,0.6887 0.342354,1.3517 1.027101,1.55 0.121575,0.035 0.278511,0.028 0.40476,0.028 0.128034,0 0.302983,0.011 0.42316,-0.035 0.408441,-0.1563 0.766655,-0.4353 0.922856,-0.8539 0.02336,-0.063 0.023,-0.1344 0.03827,-0.1996 0.02079,-0.089 0.04931,-0.1795 0.04931,-0.272 0,-0.6255 -0.435854,-1.2737 -1.084025,-1.4094 -0.109322,-0.023 -0.238091,-0.01 -0.349567,-0.01 -0.119422,0 -0.273066,-0.025 -0.386362,0.016 m -6.936137,2.3782 c -0.06502,-0.037 -0.06447,-0.091 -0.09889,-0.1528 -0.05635,-0.101 -0.128106,-0.1893 -0.205766,-0.2753 -0.18906,-0.2092 -0.4162965,-0.3102 -0.6704498,-0.4134 -0.1238018,-0.05 -0.27303,-0.029 -0.4047613,-0.029 -0.1001788,0 -0.2144131,-0.015 -0.3127701,0.01 -0.4262137,0.088 -0.8649565,0.4433 -1.0170179,0.8487 -0.2482107,0.6619 0.00454,1.4107 0.6306548,1.7653 0.230162,0.1302 0.4565707,0.1558 0.7175314,0.1558 0.2729011,0 0.4992914,-0.035 0.7359299,-0.1768 0.268854,-0.1609 0.44406,-0.3804 0.577392,-0.6559 0.09286,-0.1919 0.123194,-0.4606 0.100142,-0.6728 -0.01472,-0.1355 -0.0519,-0.261 -0.05199,-0.399 z"
     id="path10088"
     inkscape:connector-curvature="0" />
</svg>
