<?xml version="1.0" standalone="yes"?>
<svg xmlns="http://www.w3.org/2000/svg" width="1356" height="1540">
<path style="fill:#dc5e1f; stroke:none;" d="M653 0C649.725 6.64026 640.18 9.9978 634.851 15.3666C631.541 18.7019 630 23.6742 626 26C625.85 32.4237 622.251 37.678 622.018 44C620.637 81.5532 622 119.418 622 157L622 382C614.25 383.126 607.53 389.128 600.845 392.937C586.846 400.913 572.722 408.722 558.911 417.023C514.748 443.566 469.494 468.173 425 494.155C412.835 501.258 400.488 508.085 388.425 515.332C383.416 518.341 375.83 524.788 369.985 525.424C367.333 525.712 365.159 524.009 363 522.742C358.359 520.017 353.674 517.36 349 514.692C330.658 504.222 312.261 493.861 294.001 483.271C241.449 452.794 188.607 422.896 136 392.449C124.036 385.524 111.956 378.799 100 371.859C92.1216 367.287 83.7631 361.26 75 358.559C67.861 356.359 58.4023 356.583 51 357.089C29.5231 358.56 14.0153 373.344 5.08179 392C3.72016 394.844 1.07868 397.062 0.303241 400.17C-0.98005 405.313 0 411.719 0 417C0 421.763 -1.11279 428.191 0.564043 432.711C1.504 435.244 3.76721 437.045 5.19599 439.289C9.30938 445.75 12.7032 451.004 18.6188 456.05C26.1177 462.446 35.3999 466.609 43.8449 471.579C57.4282 479.572 71.1252 487.456 84.9252 495.063C124.962 517.134 164.341 540.726 204 563.552C229.296 578.111 254.532 592.747 279.95 607.063C290.655 613.093 302.24 622.547 314 626L314 838L314 893C314 898.55 315.99 908.937 312.397 913.532C307.752 919.47 296.509 923.496 289.999 927.271C272.069 937.67 254.05 947.939 236 958.13C178.049 990.851 120.957 1024.9 63 1057.58C46.1309 1067.09 24.392 1075.84 11.5293 1090.71C8.92359 1093.73 7.36591 1097.36 5.28704 1100.71C3.88106 1102.98 1.57339 1104.79 0.588735 1107.29C-1.35741 1112.24 0 1119.74 0 1125C0 1130.03 -1.18481 1136.85 0.818673 1141.56C3.78133 1148.53 8.7894 1155.76 13.1921 1161.96C16.5692 1166.72 21.2207 1170.83 26.0008 1174.14C34.802 1180.22 47.0638 1185.21 58 1184.87C80.8284 1184.14 103.152 1166.76 122.155 1155.58C181.226 1120.82 241.421 1087.78 300.579 1053.19C316.819 1043.7 333.336 1034.68 349.576 1025.19C354.584 1022.26 363.066 1014.85 369.015 1014.86C372.127 1014.86 375.388 1017.51 378 1018.98L397 1029.73C422.273 1043.91 447.178 1058.76 472.282 1073.19C508.875 1094.23 545.923 1114.76 582.001 1136.65C591.192 1142.23 600.686 1147.35 610 1152.73C613.483 1154.74 618.813 1156.67 620.972 1160.26C622.469 1162.75 621.999 1166.23 622 1169L622 1188L622 1258L622 1416C622 1442.61 621.041 1469.41 622.018 1496C622.251 1502.32 625.85 1507.58 626 1514C629.592 1516.09 630.724 1520.06 633.46 1523.16C637.958 1528.25 643.261 1531.45 648.83 1535.12C650.759 1536.39 652.174 1538.49 654.325 1539.4C658.644 1541.23 665.379 1540 670 1540L705 1540C707.616 1534.69 713.508 1532.51 717.961 1528.8C724.581 1523.28 730.48 1515.99 733.416 1507.83C734.514 1504.78 733.9 1501.18 734.039 1498C734.26 1492.96 735 1488.07 735 1483L735 1435L735 1272L735 1189L734.997 1168C734.983 1165.19 734.428 1161.8 736.488 1159.54C740.826 1154.79 749.411 1151.8 754.996 1148.68C768.609 1141.07 782.105 1133.06 795.576 1125.19C839.285 1099.65 882.996 1074.21 927 1049.18C941.478 1040.94 956.029 1032.74 970.282 1024.13C974.778 1021.41 983.627 1014.21 988.964 1014.66C995.018 1015.17 1003.05 1022.18 1008.28 1025.19C1024.5 1034.52 1040.72 1043.92 1057 1053.18C1107.36 1081.82 1157.95 1110.21 1207.84 1139.58C1221.7 1147.74 1235.89 1155.37 1249.71 1163.58C1259.85 1169.6 1270.66 1177.91 1282 1181.44C1287.48 1183.15 1296.29 1185.27 1302 1184.88C1323.22 1183.45 1340.18 1169.72 1350.83 1152.17C1352.19 1149.92 1354.5 1148.19 1355.44 1145.7C1356.93 1141.72 1356 1136.19 1356 1132L1356 1102C1350.3 1099.08 1346.81 1091.93 1342.39 1087.29C1336.68 1081.31 1329.03 1077.17 1321.96 1073.02C1258.27 1035.63 1193.69 999.637 1129.72 962.81C1109.51 951.178 1089.16 939.753 1069 928C1062.94 924.465 1050.52 920.145 1047.03 913.892C1044.94 910.146 1046 904.142 1046 900L1046 868L1046 749L1046 659C1046 651.342 1046.2 643.655 1045.98 636C1045.9 632.927 1044.3 628.997 1046.25 626.299C1048.33 623.432 1052.03 621.864 1055 620.14L1073.01 609.87C1094.29 597.584 1115.67 585.48 1137 573.308C1200.12 537.297 1263.12 501.198 1326 464.729C1332.85 460.755 1339.31 456.248 1344.71 450.4C1348.52 446.275 1350.95 440.588 1356 438L1356 409C1356 404.781 1356.91 399.302 1355.44 395.286C1354.34 392.289 1351.74 389.754 1350.14 386.999C1343.05 374.844 1332.3 364.131 1319 358.919C1305.6 353.666 1285.62 356.539 1273.29 362.875C1251.04 374.308 1229.68 387.964 1208 400.448C1160.17 427.99 1112.21 455.476 1064.28 482.81C1045.93 493.277 1027.76 504.089 1009.28 514.332C1004.58 516.937 999.986 519.73 995.282 522.332C993.011 523.588 990.775 525.572 988.011 525.343C983.877 525.001 978.569 520.715 975 518.691C965.806 513.479 956.711 508.107 947.576 502.81C912.973 482.745 878.196 462.885 843.576 442.81C817.743 427.83 792.138 412.048 765.845 397.873C758.75 394.049 751.939 389.698 744.845 385.873C741.836 384.251 736.839 382.22 735.448 378.856C733.081 373.13 735 363.176 735 357L735 307L735 103C735 83.8743 736.526 63.9913 734.286 45C733.304 36.6772 733.765 29.9128 728.53 22.7137C723.199 15.3824 716.552 9.85583 709.015 4.9729C706.661 3.44836 704.597 1.0675 701.83 0.317139C697.056 -0.977905 690.924 0 686 0L653 0z"/>
<path style="fill:#dc5e1f; stroke:none;" d="M786 338C790.147 340.537 790.217 345.881 792.603 349.961C797.64 358.575 803.313 366.375 811.039 372.799C837.828 395.075 878.025 396.616 906.718 377.304C912.183 373.625 917.483 368.91 921.782 363.911C924.663 360.562 926.141 356.223 930 354C931.226 347.219 935.871 341.492 937.582 334.911C938.933 329.712 938 323.342 938 318C938 304.78 938.438 293.423 933.316 281.089C925.161 261.45 904.414 243.994 884 238.498C876.541 236.49 867.675 237 860 237C853.517 237 845.217 236.656 839 238.559C823.171 243.406 808.874 254.372 798.675 267.289C793.325 274.066 787.981 283.487 786.278 292C783.276 307.008 786 322.883 786 338M442 422C442.242 417.576 444.716 414.991 445.698 410.911C447.045 405.314 447.283 398.751 447.83 393C448.954 381.201 446.008 369.735 446 358C440.934 354.902 439.61 346.35 435.868 341.576C425.097 327.834 409.665 314.05 392 310.299C363.453 304.239 331.677 312.19 312.155 334.439C293.055 356.207 288.54 388.938 298.58 415.83C305.454 434.239 322.331 449.331 340 457.121C354.821 463.656 372.892 463.24 389 461.942C392.356 461.672 394.926 460.024 398 458.855C410.186 454.22 420.674 447.377 429.441 437.6C431.755 435.021 434.408 432.421 436.363 429.561C438.405 426.574 438.753 423.89 442 422z"/>
<path style="fill:#ffffff; stroke:none;" d="M0 434L0 1106C6.27683 1102.92 7.7352 1095.74 12.1806 1090.71C18.4887 1083.59 26.8943 1078.89 35 1074.16C100.431 1035.95 166.338 998.82 232 961.023C251.965 949.531 272.1 938.321 291.985 926.692C296.721 923.923 301.335 920.924 306.17 918.332C308.872 916.883 312.081 915.734 313.397 912.699C316.177 906.285 314 894.945 314 888L314 830L314 626C304.996 621.757 296.517 615.991 287.845 611.063C271.165 601.586 254.351 592.307 237.91 582.42C197.05 557.848 155.103 534.751 113.715 511.062C92.7515 499.064 71.8441 486.991 50.8449 475.063C38.8586 468.255 25.7149 462.164 15.5586 452.673C9.75279 447.247 6.69521 440.268 2 434L0 434M1356 1102L1356 438C1351.6 439.358 1350.21 442.92 1347.47 446.385C1344.42 450.233 1340.87 453.674 1337.02 456.714C1322.97 467.831 1305.83 475.312 1290.58 484.664C1235.78 518.255 1178.65 548.362 1123 580.599C1104.25 591.461 1085.52 602.426 1066.71 613.189C1060.74 616.611 1049.07 620.095 1045.68 626.468C1043.67 630.239 1046 638.609 1046 643L1046 687L1046 848L1046 896C1046 901.185 1044.29 910.194 1047.03 914.776C1048.65 917.484 1052.37 918.929 1055 920.449C1060.66 923.726 1066.25 927.136 1072 930.246C1091.2 940.626 1109.88 952.035 1128.84 962.81C1187.02 995.864 1244.79 1029.71 1303 1062.82C1315 1069.65 1328.36 1075.82 1338.91 1084.82C1344.52 1089.6 1349.01 1099.84 1356 1102M678 1061C739.831 1026.4 800.55 989.815 862.155 954.81C878.478 945.535 894.678 936.008 911 926.692C915.868 923.914 927.049 920.101 929.397 914.776C931.694 909.567 930 900.631 930 895L930 850L930 693L930 644C930 638.86 931.909 628.845 928.973 624.429C926.767 621.111 920.666 619.135 917.282 617.19C907.832 611.758 898.45 606.184 889 600.729L785 540.729C759.496 526.008 733.639 511.816 708.424 496.668C701.991 492.804 695.457 489.1 689 485.258C685.906 483.416 682.119 480.409 678.286 480.731C672.974 481.176 666.546 486.592 662 489.177C649.972 496.019 638.053 503.064 626 509.87C579.718 536.001 534.252 563.702 487.87 589.668C473.151 597.908 458.629 606.556 444 614.977C439.019 617.844 429.547 621.1 426.858 626.468C424.873 630.431 426 636.687 426 641L426 673L426 790L426 883L426 905C426.002 908.704 425.561 912.791 428.318 915.701C432.828 920.462 441.194 923.412 446.83 926.772C460.661 935.017 474.793 942.733 488.718 950.811C529.143 974.262 569.385 997.929 610 1021.02C623.796 1028.86 637.427 1037 651.155 1044.93C660.129 1050.12 669.79 1054.63 678 1061z"/>
<path style="fill:#dc5e1f; stroke:none;" d="M1094 678C1093.86 682.526 1091.56 684.959 1090.43 689.089C1088.78 695.129 1089.03 703.71 1089 710C1088.96 717.643 1088.85 726.453 1090.23 733.961C1091.04 738.395 1093.85 741.233 1094 746C1097.28 748.005 1097.81 751.356 1100.04 754.385C1104.76 760.794 1109.52 766.837 1115.71 771.896C1141.12 792.642 1179.95 796.334 1207.71 777.844C1216.47 772.016 1222.9 765.085 1229.6 757.089C1232.61 753.488 1233.94 748.234 1238 746C1238.07 739.452 1241.89 734.504 1242 728C1242.19 716.631 1243.22 704.289 1241.87 693.001C1241.22 687.589 1238.06 683.689 1238 678C1233.94 675.765 1232.62 670.511 1229.6 666.911C1222.92 658.954 1216.41 651.948 1207.71 646.156C1178.61 626.772 1140.09 632.338 1114 653.619C1108.48 658.119 1104.2 663.864 1100.05 669.615C1097.8 672.744 1097.45 675.988 1094 678M122 818C122 834.212 118.528 851.782 122.299 867.83C122.965 870.662 124.833 873.239 125.804 876.004C139.273 914.368 190.219 931.476 226 917.085C244.183 909.772 260.411 894.368 268.88 876.714C270.043 874.29 269.951 871.585 270.873 869.089C271.667 866.942 273.185 865.173 273.701 862.911C275.101 856.763 274 849.29 274 843C274 834.005 273.846 827.29 270.846 818.911C266.559 806.939 260.565 796.981 251.2 788.039C240.934 778.237 228.937 771.574 215 769.245C209.045 768.251 203.095 766.177 197 766.179C191.619 766.181 186.26 767.992 181 768.916C177.407 769.547 173.408 769.577 170 770.918C157.501 775.839 144.64 784.193 136.489 795.014C133.188 799.396 129.811 804.076 127.365 809.001C125.611 812.533 125.509 815.853 122 818z"/>

<path style="fill:#dc5e1f; stroke:none;" d="M955 1078.89C932.499 1087.2 911.961 1101.92 902.838 1125.09C901.725 1127.92 901.862 1131.08 901.025 1134C900.058 1137.37 898.569 1140.47 898.174 1144C893.927 1181.97 916.782 1218.52 954 1229.45C960.608 1231.39 969.138 1231 976 1231C982.959 1231 992.468 1231.62 999 1229.08C1021.2 1220.46 1040.67 1205.08 1049.16 1182C1050.43 1178.54 1050.41 1174.59 1051.24 1171C1052.37 1166.08 1053.92 1161.1 1053.92 1156C1053.92 1121.52 1030.23 1085.78 995 1078.3C989.058 1077.04 982.059 1078 976 1078C969.509 1078 961.158 1076.62 955 1078.89M578 1210C574.466 1207.94 574.496 1204.97 572.625 1201.58C569.562 1196.01 565.662 1191.14 561.441 1186.4C551.165 1174.87 538.814 1169.3 525 1163.61C518.271 1160.85 510.16 1162 503 1162C497.555 1162 491.346 1161.18 486 1162.3C462.834 1167.14 438.987 1186.74 430.722 1209.09C417.231 1245.58 430.969 1286.86 465 1306.41C477.51 1313.59 489.816 1315 504 1315C518.833 1315 531.138 1313.06 544 1305.25C558.613 1296.38 568.136 1284.28 575.383 1269.09C580.43 1258.51 582.079 1243.7 580.826 1232C580.026 1224.53 578.005 1217.61 578 1210z"/>
</svg>
