<?xml version="1.0" encoding="UTF-8"?>
<svg width="1440px" height="807px" viewBox="0 0 1440 807" version="1.1" xmlns="http://www.w3.org/2000/svg" xmlns:xlink="http://www.w3.org/1999/xlink">
    <!-- Generator: Sketch 46.2 (44496) - http://www.bohemiancoding.com/sketch -->
    <title>Polygon + Polygon + Polygon + Polygon Mask</title>
    <desc>Created with Sketch.</desc>
    <defs>
        <linearGradient x1="100%" y1="100%" x2="0%" y2="0%" id="linearGradient-1">
            <stop stop-color="#FD9F1E" offset="0%"></stop>
            <stop stop-color="#F24A25" offset="100%"></stop>
        </linearGradient>
        <rect id="path-2" x="0" y="0" width="1440" height="807"></rect>
    </defs>
    <g id="v3" stroke="none" stroke-width="1" fill="none" fill-rule="evenodd">
        <g id="Homepage-v3-hero" transform="translate(0.000000, -116.000000)">
            <g id="Polygon-+-Polygon-+-Polygon-+-Polygon-Mask" transform="translate(0.000000, 116.000000)">
                <mask id="mask-3" fill="white">
                    <use xlink:href="#path-2"></use>
                </mask>
                <use id="Mask" fill="url(#linearGradient-1)" xlink:href="#path-2"></use>
                <g id="hexagon" mask="url(#mask-3)" stroke="#FFFFFF">
                    <g transform="translate(-17.000000, -156.000000)" id="Polygon">
                        <path d="M1387.54929,614.270812 L1139.5,764.950785 L1139.5,1066.3556 L1387.54929,1217.03558 L1635.59858,1066.3556 L1635.59858,764.950785 L1387.54929,614.270812 Z" opacity="0.340000004"></path>
                        <path d="M1227.54929,0.866639639 L979.5,151.546612 L979.5,452.951432 L1227.54929,603.631405 L1475.59858,452.951432 L1475.59858,151.546612 L1227.54929,0.866639639 Z" opacity="0.219999999"></path>
                        <path d="M233.460488,636.365988 L0.566641994,777.839637 L0.566641994,1060.83181 L233.460488,1202.30546 L466.354335,1060.83181 L466.354335,777.839637 L233.460488,636.365988 Z" opacity="0.35"></path>
                        <path d="M564.541904,36.6397818 L261.5,220.725556 L261.5,588.941979 L564.541904,773.027754 L867.583808,588.941979 L867.583808,220.725556 L564.541904,36.6397818 Z" opacity="0.1"></path>
                    </g>
                </g>
            </g>
        </g>
    </g>
</svg>